HIERARCHY
ROOT HipCenter
{
    OFFSET 0.0 0.0 -0.0
    CHANNELS 6 Xposition Yposition Zposition Zrotation Xrotation Yrotation
    JOINT Spine
    {
        OFFSET 0.0 27.443359375 0.0
        CHANNELS 3 Zrotation Xrotation Yrotation
        JOINT ShoulderCenter
        {
            OFFSET 0.0 20.645967483520508 0.0
            CHANNELS 3 Zrotation Xrotation Yrotation
            JOINT LeftShoulder
            {
                OFFSET 17.64444923400879 0.0 0.0
                CHANNELS 3 Zrotation Xrotation Yrotation
                JOINT LeftElbow
                {
                    OFFSET 21.97926139831543 0.0 0.0
                    CHANNELS 3 Zrotation Xrotation Yrotation
                    JOINT LeftWrist
                    {
                        OFFSET 21.985363006591797 0.0 0.0
                        CHANNELS 3 Zrotation Xrotation Yrotation
                        JOINT LeftHand
                        {
                            OFFSET 8.353336334228516 0.0 0.0
                            CHANNELS 3 Zrotation Xrotation Yrotation
                            End Site
                            {
                                OFFSET 3.341334342956543 0.0 0.0
                            }
                        }
                    }
                }
            }
            JOINT RightShoulder
            {
                OFFSET -17.64444923400879 0.0 0.0
                CHANNELS 3 Zrotation Xrotation Yrotation
                JOINT RightElbow
                {
                    OFFSET -21.97926139831543 0.0 0.0
                    CHANNELS 3 Zrotation Xrotation Yrotation
                    JOINT RightWrist
                    {
                        OFFSET -21.985363006591797 0.0 0.0
                        CHANNELS 3 Zrotation Xrotation Yrotation
                        JOINT RightHand
                        {
                            OFFSET -8.353336334228516 0.0 0.0
                            CHANNELS 3 Zrotation Xrotation Yrotation
                            End Site
                            {
                                OFFSET -3.341334342956543 0.0 0.0
                            }
                        }
                    }
                }
            }
            End Site
            {
                OFFSET 0.0 8.25838851928711 0.0
            }
        }
    }
    JOINT LeftHip
    {
        OFFSET 8.848532676696777 0.0 0.0
        CHANNELS 3 Zrotation Xrotation Yrotation
        JOINT LeftKnee
        {
            OFFSET 0.0 -30.84750747680664 0.0
            CHANNELS 3 Zrotation Xrotation Yrotation
            JOINT LeftAnkle
            {
                OFFSET 0.0 -35.10664749145508 0.0
                CHANNELS 3 Zrotation Xrotation Yrotation
                JOINT LeftFoot
                {
                    OFFSET 0.0 -11.924406051635742 0.0
                    CHANNELS 3 Zrotation Xrotation Yrotation
                    End Site
                    {
                        OFFSET 0.0 0.0 4.769762992858887
                    }
                }
            }
        }
    }
    JOINT RightHip
    {
        OFFSET -8.848532676696777 0.0 0.0
        CHANNELS 3 Zrotation Xrotation Yrotation
        JOINT RightKnee
        {
            OFFSET 0.0 -30.84750747680664 0.0
            CHANNELS 3 Zrotation Xrotation Yrotation
            JOINT RightAnkle
            {
                OFFSET 0.0 -35.10664749145508 0.0
                CHANNELS 3 Zrotation Xrotation Yrotation
                JOINT RightFoot
                {
                    OFFSET 0.0 -11.924406051635742 0.0
                    CHANNELS 3 Zrotation Xrotation Yrotation
                    End Site
                    {
                        OFFSET 0.0 0.0 4.769762992858887
                    }
                }
            }
        }
    }
}
MOTION
Frames: 4
Frame Time: 0.03333333333333333
16.40692901611328 26.893320083618164 -384.0762023925781 23.80914661619208 60.46518851829647 142.6774930102832 2.5399393915854023 0.4235345817250474 -0.08533396776995007 -8.930873660065578e-07 1.9821226149592793e-06 6.043877715927991 -66.8552680969361 -17.872717253955212 59.33288454503399 1.184938089055358e-06 1.4398519575341297e-06 55.02867172102846 -2.32895873736079e-06 32.079568122837436 44.58178406990181 -6.361109362927032e-15 6.3611093629270335e-15 -6.361109362927032e-15 42.5369310322763 -12.368400073217211 -50.242196259975685 -3.588849424301894e-06 -2.9341845590942284e-06 -121.64510368615323 2.3947726559122383e-06 -5.908440165690855 -21.054219222737135 6.361109362927032e-15 1.7655625192200634e-31 3.180554681463516e-15 2.9939953460648225 67.13753055070018 20.334336108051936 -14.945759364056318 -17.14128098535339 -2.131204270321378 4.783269643013124 43.53844622482753 1.4412680007351601 -1.987846675914698e-16 -3.1805546814635168e-15 3.975693351829396e-16 -21.013845183597486 53.62352111509212 -11.919427738018346 16.155510183550053 -9.861141362079 2.028702514318827 -43.21579805174316 44.915968991260904 23.56499321386781 -1.5902773407317584e-15 7.172597734331508e-32 -5.168401357378215e-15
14.519390106201172 24.79813003540039 -385.64862060546875 15.338940536089257 60.26000993837928 156.73140845191543 -0.17814098927716704 -1.4158054253208225 0.3256205254572824 -5.260505902650982e-07 1.6162327285230719e-06 10.109189770508092 -59.833327831753365 -3.7952104553848254 33.10287513661874 -6.31903147938517e-06 -3.0399871741495923e-06 100.2721332722655 179.9999667488012 82.2297493843339 -162.8384612839878 0.0 0.0 0.0 39.216992934520924 -27.26554592327017 -63.818140742388955 -3.8213963890017905e-06 1.4604374784273718e-06 -116.53507397526663 -1.7320056914944247e-06 21.864593776317754 -30.841740447869267 6.3611093629270335e-15 -6.3611093629270335e-15 3.531125038440127e-31 7.7851304467462 63.08904859789326 12.725742441249176 -13.709424359528334 -14.63361432078319 -0.23833727154041837 4.324111854731156 46.43596241949557 -2.473301556632585 5.963540027744093e-16 -4.138037154422024e-33 -7.951386703658791e-16 -21.027707517814125 54.05525555923176 -16.45269238450364 21.017694947371638 -9.330630750179635 2.862623996235956 -49.71831523743491 41.124425508931886 22.978945569455355 0.0 0.0 9.541664044390547e-15
17.960790634155273 26.106569290161133 -390.69329833984375 27.401574497818032 65.34682786242573 138.35567479532 0.7980899564797606 0.3894094956568639 -0.11724556840800707 -1.2112140373972123e-07 -1.6702931450774505e-06 15.802776644829734 -65.0095998722013 -7.1378298259560005 47.11375904031849 8.663884092775498e-07 -3.2860960122810185e-06 89.4950028123818 -6.330772799053381e-06 83.9413940566193 14.117681866066725 3.180554681463516e-15 -3.1805546814635168e-15 -6.361109362927033e-15 40.72356040450698 -23.076998995791662 -59.8166549084437 4.981738903896147e-06 2.211488680649772e-06 -122.19931142573213 -6.755261887340224e-07 23.08219288639432 -20.686100501732742 0.0 0.0 0.0 -26.632908797755327 79.94991357748019 29.918356071584984 -7.6951355696862285 -28.06146903527282 -1.8619076903588165 -9.350602047602274 43.55030839840365 8.923732100738059 3.975693351829396e-16 4.138037154422024e-33 1.1927080055488188e-15 -20.33886859237968 61.0731113343092 -10.820759826886887 16.546678470867505 -11.530220278374554 3.1145596713767723 -77.22574554398274 44.46932550049696 53.164317605457185 0.0 0.0 -1.5902773407317582e-15
15.498289108276367 11.082460403442383 -381.2635803222656 11.15274556719643 49.84813793383312 121.20590217429867 1.3473198127825894 -0.9483965718894121 0.5196621191527827 6.658434011026091e-07 -3.0202834319955257e-06 43.78302200966963 -77.46971841055912 -16.926009553012705 33.00389472542105 5.945962891622574e-08 -2.0156578374950305e-06 95.34547222073317 -179.99999880180815 68.25673035968411 -167.99135615830158 0.0 0.0 0.0 45.27604127940851 -33.318343766534156 -40.72836671673032 -1.8945870842831373e-06 5.240679209024732e-06 -127.03334271583054 1.0518416475350913e-06 76.59134666121184 -12.655084448054014 7.951386703658794e-16 0.0 0.0 -46.292985690662874 48.32710123277726 24.299295929010448 8.615932492270234 -27.688872534394037 -1.520203532693788 -45.20874591829106 15.880447322401935 16.96156631957873 -1.5902773407317584e-15 9.931289170612858e-32 -7.156248033292914e-15 -10.79916499761587 10.658696215637583 -8.718958782005624 -5.469335406869826 11.235003167367564 -2.9074267894757604 -157.05072625897472 13.540941363847546 169.8961736997888 0.0 0.0 0.0
